<?xml version="1.0" encoding="UTF-8" standalone="no"?>
<!-- Created with Inkscape (http://www.inkscape.org/) -->

<svg
   xmlns:osb="http://www.openswatchbook.org/uri/2009/osb"
   xmlns:dc="http://purl.org/dc/elements/1.1/"
   xmlns:cc="http://creativecommons.org/ns#"
   xmlns:rdf="http://www.w3.org/1999/02/22-rdf-syntax-ns#"
   xmlns:svg="http://www.w3.org/2000/svg"
   xmlns="http://www.w3.org/2000/svg"
   xmlns:sodipodi="http://sodipodi.sourceforge.net/DTD/sodipodi-0.dtd"
   xmlns:inkscape="http://www.inkscape.org/namespaces/inkscape"
   width="12.7mm"
   height="8.4665804mm"
   viewBox="0 0 12.7 8.4665804"
   version="1.1"
   id="svg45344"
   inkscape:version="0.92.3 (2405546, 2018-03-11)"
   sodipodi:docname="configsvg.svg">
  <defs
     id="defs45338">
    <linearGradient
       id="linearGradient47621"
       osb:paint="solid">
      <stop
         style="stop-color:#34aff3;stop-opacity:1;"
         offset="0"
         id="stop47619" />
    </linearGradient>
  </defs>
  <sodipodi:namedview
     id="base"
     pagecolor="#ffffff"
     bordercolor="#666666"
     borderopacity="1.0"
     inkscape:pageopacity="0.0"
     inkscape:pageshadow="2"
     inkscape:zoom="5.6568542"
     inkscape:cx="2.5942283"
     inkscape:cy="21.240396"
     inkscape:document-units="mm"
     inkscape:current-layer="layer1"
     showgrid="false"
     fit-margin-top="0"
     fit-margin-left="0"
     fit-margin-right="0"
     fit-margin-bottom="0"
     inkscape:window-width="1366"
     inkscape:window-height="708"
     inkscape:window-x="0"
     inkscape:window-y="32"
     inkscape:window-maximized="1"
     showguides="true"
     inkscape:guide-bbox="true">
    <sodipodi:guide
       position="1.4519771,11.257699"
       orientation="1,0"
       id="guide47761"
       inkscape:locked="false" />
  </sodipodi:namedview>
  <metadata
     id="metadata45341">
    <rdf:RDF>
      <cc:Work
         rdf:about="">
        <dc:format>image/svg+xml</dc:format>
        <dc:type
           rdf:resource="http://purl.org/dc/dcmitype/StillImage" />
        <dc:title></dc:title>
      </cc:Work>
    </rdf:RDF>
  </metadata>
  <g
     inkscape:label="Capa 1"
     inkscape:groupmode="layer"
     id="layer1"
     transform="translate(-8.5563611,-118.98097)">
    <path
       style="clip-rule:evenodd;fill:#000000;fill-opacity:0.10196102;fill-rule:evenodd;stroke-width:0.01334484;image-rendering:optimizeQuality;shape-rendering:geometricPrecision;text-rendering:geometricPrecision"
       inkscape:connector-curvature="0"
       id="path8009"
       d="m 11.041554,117.87574 c 2.855796,-0.50709 5.671558,-0.52044 8.460631,0 0.894105,0.16014 1.467933,0.74732 1.641416,1.64142 0.547138,2.81576 0.547138,5.64488 0,8.46064 -0.160138,0.8941 -0.747311,1.56135 -1.641416,1.65476 -2.789073,0.25354 -5.604835,0.25354 -8.460631,0 -0.90745,-0.0801 -1.5480025,-0.74732 -1.6547609,-1.65476 -0.3069314,-2.81576 -0.3736562,-5.64488 0,-8.46064 0.1201047,-0.8941 0.7606559,-1.49462 1.6547609,-1.64142 z"
       class="fil1" />
    <path
       style="clip-rule:evenodd;fill:#ffffff;fill-rule:evenodd;stroke-width:0.01334484;image-rendering:optimizeQuality;shape-rendering:geometricPrecision;text-rendering:geometricPrecision"
       inkscape:connector-curvature="0"
       id="path8013"
       d="m 10.761312,116.91492 c 2.855797,-0.49377 5.671558,-0.50711 8.46063,0 0.894105,0.17348 1.481278,0.76065 1.641417,1.65476 0.547138,2.81576 0.547138,5.64487 0,8.46063 -0.160139,0.89411 -0.733967,1.56134 -1.641417,1.64141 -2.789072,0.2669 -5.604833,0.25356 -8.46063,0 -0.9074492,-0.0801 -1.548002,-0.7473 -1.6414154,-1.64141 -0.3202765,-2.81576 -0.3870013,-5.64487 0,-8.46063 0.1201046,-0.89411 0.7473112,-1.49462 1.6414154,-1.65476 z"
       class="fil3" />
    <path
       style="clip-rule:evenodd;fill:#e6e6e6;fill-rule:evenodd;stroke-width:0.01334484;image-rendering:optimizeQuality;shape-rendering:geometricPrecision;text-rendering:geometricPrecision"
       inkscape:connector-curvature="0"
       id="path8015"
       d="m 11.388519,117.74229 c 2.562211,-0.45371 5.084386,-0.46706 7.593217,0 0.800691,0.1468 1.321139,0.6806 1.481277,1.48128 0.480415,2.52218 0.480415,5.0577 0,7.57987 -0.160138,0.8007 -0.680586,1.40121 -1.481277,1.48128 -2.508831,0.22686 -5.031006,0.22686 -7.593217,0 -0.80069,-0.0801 -1.387863,-0.66724 -1.4679327,-1.48128 -0.2935865,-2.52217 -0.346965,-5.05769 0,-7.57987 0.1067597,-0.81403 0.6672427,-1.33448 1.4679327,-1.48128 z"
       class="fil2" />
    <path
       style="clip-rule:evenodd;fill:#ff6595;fill-rule:evenodd;stroke-width:0.01334484;image-rendering:optimizeQuality;shape-rendering:geometricPrecision;text-rendering:geometricPrecision"
       inkscape:connector-curvature="0"
       id="path8019"
       d="m 11.201692,117.00833 c 2.56221,-0.45373 5.084385,-0.46707 7.593215,0 0.800691,0.1468 1.32114,0.68058 1.481278,1.48128 0.480415,2.52217 0.480415,5.0577 0,7.57987 -0.160138,0.80069 -0.680587,1.40121 -1.481278,1.48128 -2.50883,0.22686 -5.031005,0.22686 -7.593215,0 -0.800691,-0.0801 -1.3878641,-0.66725 -1.4679325,-1.48128 -0.2935865,-2.53551 -0.3469664,-5.0577 0,-7.57987 0.1067597,-0.81404 0.6672415,-1.34783 1.4679325,-1.48128 z"
       class="fil48" />
    <path
       style="clip-rule:evenodd;fill:#fd628e;fill-rule:evenodd;stroke-width:0.01334484;image-rendering:optimizeQuality;shape-rendering:geometricPrecision;text-rendering:geometricPrecision"
       inkscape:connector-curvature="0"
       id="path8023"
       d="m 11.25507,117.07506 c 2.522176,-0.45373 5.017662,-0.45373 7.486459,0 0.787345,0.14679 1.307794,0.66723 1.454587,1.45458 0.49376,2.49549 0.480415,4.99098 0,7.48646 -0.146793,0.78734 -0.653897,1.38786 -1.454587,1.45459 -2.468797,0.22686 -4.964283,0.22686 -7.486459,0 -0.800689,-0.0667 -1.3611736,-0.6539 -1.454587,-1.45459 -0.2802416,-2.49548 -0.3336214,-4.99097 0,-7.48646 0.1067597,-0.78735 0.667243,-1.32113 1.454587,-1.45458 z"
       class="fil49" />
    <path
       style="clip-rule:evenodd;fill:#fa5e87;fill-rule:evenodd;stroke-width:0.01334484;image-rendering:optimizeQuality;shape-rendering:geometricPrecision;text-rendering:geometricPrecision"
       inkscape:connector-curvature="0"
       id="path8025"
       d="m 11.30845,117.14178 c 2.495486,-0.44038 4.950937,-0.44038 7.379699,0 0.787346,0.1468 1.294449,0.66724 1.441243,1.44124 0.480414,2.45545 0.467069,4.92426 0,7.3797 -0.146794,0.78734 -0.653897,1.37452 -1.441243,1.44124 -2.428762,0.22687 -4.884213,0.22687 -7.379699,0 -0.787346,-0.0667 -1.3478288,-0.6539 -1.4412422,-1.44124 -0.2802416,-2.45544 -0.3336214,-4.92425 0,-7.3797 0.1067597,-0.78735 0.6672412,-1.30779 1.4412422,-1.44124 z"
       class="fil50" />
    <path
       style="clip-rule:evenodd;fill:#f85b80;fill-rule:evenodd;stroke-width:0.01334484;image-rendering:optimizeQuality;shape-rendering:geometricPrecision;text-rendering:geometricPrecision"
       inkscape:connector-curvature="0"
       id="path8027"
       d="m 11.36183,117.20851 c 2.455451,-0.42704 4.884212,-0.44039 7.286284,0 0.760656,0.14679 1.267761,0.65389 1.414554,1.42789 0.46707,2.42876 0.46707,4.84419 0,7.27294 -0.146793,0.77401 -0.640553,1.34783 -1.414554,1.4279 -2.402072,0.21352 -4.830833,0.21352 -7.286284,0 -0.774001,-0.0667 -1.334484,-0.64056 -1.4278988,-1.4279 -0.2668965,-2.42875 -0.3202764,-4.84418 0,-7.27294 0.1067598,-0.774 0.6538978,-1.29444 1.4278988,-1.42789 z"
       class="fil51" />
    <path
       style="clip-rule:evenodd;fill:#f65879;fill-rule:evenodd;stroke-width:0.01334484;image-rendering:optimizeQuality;shape-rendering:geometricPrecision;text-rendering:geometricPrecision"
       inkscape:connector-curvature="0"
       id="path8029"
       d="m 11.415209,117.27523 c 2.415417,-0.42704 4.817488,-0.42704 7.179527,0 0.760654,0.1468 1.254414,0.65389 1.401207,1.40121 0.46707,2.40207 0.453725,4.7908 0,7.19287 -0.146793,0.74732 -0.640553,1.32114 -1.401207,1.38786 -2.362039,0.22686 -4.76411,0.22686 -7.179527,0 -0.774,-0.0667 -1.32114,-0.6272 -1.401208,-1.38786 -0.2668979,-2.40207 -0.3336214,-4.7908 0,-7.19287 0.10676,-0.76066 0.640552,-1.26776 1.401208,-1.40121 z"
       class="fil52" />
    <path
       style="clip-rule:evenodd;fill:#ee4e65;fill-rule:evenodd;stroke-width:0.01334484;image-rendering:optimizeQuality;shape-rendering:geometricPrecision;text-rendering:geometricPrecision"
       inkscape:connector-curvature="0"
       id="path8035"
       d="m 11.562002,117.48875 c 2.322003,-0.41369 4.617317,-0.41369 6.885939,0 0.720623,0.13345 1.201037,0.61386 1.334486,1.33448 0.453724,2.29531 0.440379,4.59063 0,6.88594 -0.13345,0.72063 -0.600518,1.26776 -1.334486,1.34783 -2.268622,0.20017 -4.563936,0.20017 -6.885939,0 -0.733966,-0.0667 -1.254414,-0.61386 -1.334484,-1.34783 -0.2668968,-2.29531 -0.3202767,-4.59063 0,-6.88594 0.09341,-0.73397 0.613863,-1.21437 1.334484,-1.33448 z"
       class="fil55" />
    <path
       style="clip-rule:evenodd;fill:#ec4b5e;fill-rule:evenodd;stroke-width:0.01334484;image-rendering:optimizeQuality;shape-rendering:geometricPrecision;text-rendering:geometricPrecision"
       inkscape:connector-curvature="0"
       id="path8037"
       d="m 11.615382,117.55548 c 2.281968,-0.40035 4.550592,-0.4137 6.779181,0 0.720621,0.13345 1.187691,0.60051 1.321139,1.32113 0.44038,2.25528 0.427035,4.52391 0,6.77918 -0.13345,0.72063 -0.600518,1.25441 -1.321139,1.32114 -2.228589,0.21352 -4.497213,0.20017 -6.779181,0 -0.720621,-0.0667 -1.241071,-0.60051 -1.321139,-1.32114 -0.253552,-2.25527 -0.3069319,-4.5239 0,-6.77918 0.09341,-0.72062 0.600518,-1.20104 1.321139,-1.32113 z"
       class="fil56" />
    <path
       style="clip-rule:evenodd;fill:#ea4857;fill-rule:evenodd;stroke-width:0.01334484;image-rendering:optimizeQuality;shape-rendering:geometricPrecision;text-rendering:geometricPrecision"
       inkscape:connector-curvature="0"
       id="path8039"
       d="m 11.668762,117.6222 c 2.255278,-0.40035 4.483867,-0.40035 6.685766,0 0.693932,0.13345 1.161002,0.60051 1.29445,1.30779 0.427035,2.22859 0.427035,4.44384 0,6.67242 -0.133449,0.70728 -0.587173,1.24107 -1.29445,1.30779 -2.215244,0.20018 -4.430488,0.20018 -6.685766,0 -0.720623,-0.0667 -1.227726,-0.58716 -1.307796,-1.30779 -0.253552,-2.22858 -0.293586,-4.44383 0,-6.67242 0.09342,-0.72062 0.600518,-1.1877 1.307796,-1.30779 z"
       class="fil57" />
    <path
       style="clip-rule:evenodd;fill:#e74450;fill-rule:evenodd;stroke-width:0.01334484;image-rendering:optimizeQuality;shape-rendering:geometricPrecision;text-rendering:geometricPrecision"
       inkscape:connector-curvature="0"
       id="path8041"
       d="m 11.72214,117.68891 c 2.215245,-0.38699 4.403799,-0.40033 6.579008,0 0.693933,0.13345 1.147657,0.58718 1.281106,1.28112 0.427034,2.20189 0.413689,4.39045 0,6.59234 -0.13345,0.6806 -0.587173,1.21438 -1.281106,1.28111 -2.175209,0.20017 -4.363763,0.18683 -6.579008,0 -0.707276,-0.0667 -1.214381,-0.58717 -1.281104,-1.28111 -0.253552,-2.20189 -0.306932,-4.39045 0,-6.59234 0.09342,-0.69394 0.587173,-1.16101 1.281104,-1.28112 z"
       class="fil58" />
    <path
       style="clip-rule:evenodd;fill:#e54149;fill-rule:evenodd;stroke-width:0.01334484;image-rendering:optimizeQuality;shape-rendering:geometricPrecision;text-rendering:geometricPrecision"
       inkscape:connector-curvature="0"
       id="path8043"
       d="m 11.762175,117.75564 c 2.188555,-0.38699 4.350419,-0.38699 6.485594,0 0.680587,0.13345 1.134311,0.58718 1.267761,1.26777 0.41369,2.16186 0.41369,4.32373 0,6.48558 -0.13345,0.6806 -0.573829,1.20104 -1.267761,1.25442 -2.135175,0.20017 -4.297039,0.20017 -6.485594,0 -0.680586,-0.0534 -1.174346,-0.57382 -1.254416,-1.25442 -0.240206,-2.16185 -0.293586,-4.32372 0,-6.48558 0.09342,-0.69394 0.57383,-1.14767 1.254416,-1.26777 z"
       class="fil59" />
    <path
       style="clip-rule:evenodd;fill:#ffffff;fill-rule:evenodd;stroke-width:0.01334484;image-rendering:optimizeQuality;shape-rendering:geometricPrecision;text-rendering:geometricPrecision"
       inkscape:connector-curvature="0"
       id="path8047"
       d="m 11.121622,117.3553 c 0.54714,0 1.000864,0.44037 1.000864,1.00086 0,0.54714 -0.453724,1.00086 -1.000864,1.00086 -0.547138,0 -1.000863,-0.45372 -1.000863,-1.00086 0,-0.56049 0.453725,-1.00086 1.000863,-1.00086 z"
       class="fil3" />
    <path
       style="clip-rule:evenodd;fill:#ffffff;fill-rule:evenodd;stroke-width:0.01334484;image-rendering:optimizeQuality;shape-rendering:geometricPrecision;text-rendering:geometricPrecision"
       inkscape:connector-curvature="0"
       id="path8049"
       d="m 12.65628,116.92826 c 0.266896,0 0.493759,0.22687 0.493759,0.49377 0,0.28023 -0.226863,0.49375 -0.493759,0.49375 -0.280242,0 -0.507105,-0.21352 -0.507105,-0.49375 0,-0.2669 0.226863,-0.49377 0.507105,-0.49377 z"
       class="fil3" />
    <path
       style="clip-rule:evenodd;fill:#ffffff;fill-rule:evenodd;stroke-width:0.01334484;image-rendering:optimizeQuality;shape-rendering:geometricPrecision;text-rendering:geometricPrecision"
       inkscape:connector-curvature="0"
       id="path8051"
       d="m 19.02177,126.10952 c 0.33362,0 0.600518,0.2669 0.600518,0.60051 0,0.33362 -0.266898,0.60052 -0.600518,0.60052 -0.320276,0 -0.600518,-0.2669 -0.600518,-0.60052 0,-0.33361 0.280242,-0.60051 0.600518,-0.60051 z"
       class="fil3" />
    <path
       style="clip-rule:evenodd;fill:none;fill-rule:evenodd;stroke:#cc191c;stroke-width:0.6768505;image-rendering:optimizeQuality;shape-rendering:geometricPrecision;text-rendering:geometricPrecision"
       inkscape:connector-curvature="0"
       id="path8057"
       d="m 15.832352,119.10348 c 0.320277,0.0667 0.627208,0.20016 0.90745,0.37364 l 0.507104,-0.50709 c 0.09342,-0.0801 0.226862,-0.0801 0.306932,0 l 0.640551,0.6272 c 0.08007,0.0934 0.08007,0.22686 0,0.32028 l -0.507103,0.49376 c 0.173482,0.28023 0.306932,0.58717 0.387,0.90745 h 0.720621 c 0.120105,0 0.213518,0.10676 0.213518,0.22686 v 0.8941 c 0,0.1201 -0.09341,0.21352 -0.213518,0.21352 h -0.707276 c -0.08007,0.33362 -0.200173,0.64056 -0.373656,0.9208 l 0.507104,0.5071 c 0.08007,0.0801 0.08007,0.22686 0,0.30693 l -0.640552,0.62721 c -0.08007,0.0934 -0.226862,0.0934 -0.306932,0 l -0.493758,-0.49376 c -0.280243,0.17348 -0.587173,0.30693 -0.920795,0.387 v 0.70727 c 0,0.12011 -0.09341,0.22687 -0.213518,0.22687 H 14.75142 c -0.120105,0 -0.226862,-0.10676 -0.226862,-0.22687 v -0.70727 c -0.320276,-0.0667 -0.627208,-0.20017 -0.907449,-0.37366 l -0.507105,0.50711 c -0.09342,0.0934 -0.226861,0.0934 -0.306931,0 l -0.640553,-0.62721 c -0.08007,-0.0934 -0.08007,-0.22686 0,-0.30693 l 0.507104,-0.5071 c -0.173483,-0.28024 -0.306931,-0.58718 -0.386999,-0.90746 h -0.720623 c -0.120105,0 -0.213517,-0.10676 -0.213517,-0.22686 v -0.8941 c 0,-0.1201 0.09342,-0.21352 0.213517,-0.21352 h 0.707278 c 0.08007,-0.33362 0.200171,-0.64056 0.373655,-0.92079 l -0.507104,-0.50711 c -0.08007,-0.0801 -0.08007,-0.21352 0,-0.30693 l 0.640552,-0.6272 c 0.08007,-0.0934 0.226863,-0.0934 0.306931,0 l 0.507105,0.49375 c 0.266896,-0.17349 0.573828,-0.30694 0.907449,-0.38699 v -0.70728 c 0,-0.12011 0.09342,-0.21352 0.213517,-0.21352 h 0.894104 c 0.120105,0 0.226863,0.0934 0.226863,0.21352 z m -0.653897,1.65475 c 0.693932,0 1.254415,0.56049 1.254415,1.25442 0,0.68058 -0.560483,1.24107 -1.254415,1.24107 -0.693932,0 -1.254415,-0.56049 -1.254415,-1.24107 0,-0.69393 0.560483,-1.25442 1.254415,-1.25442 z"
       class="fil18 str15" />
    <path
       style="clip-rule:evenodd;fill:#ffffff;fill-rule:evenodd;stroke-width:0.01334484;image-rendering:optimizeQuality;shape-rendering:geometricPrecision;text-rendering:geometricPrecision"
       inkscape:connector-curvature="0"
       d="m 15.832352,119.10348 c 0.320277,0.0667 0.627208,0.20016 0.90745,0.37364 l 0.507104,-0.50709 c 0.09342,-0.0801 0.226862,-0.0801 0.306932,0 l 0.640551,0.6272 c 0.08007,0.0934 0.08007,0.22686 0,0.32028 l -0.507103,0.49376 c 0.173482,0.28023 0.306932,0.58717 0.387,0.90745 h 0.720621 c 0.120105,0 0.213518,0.10676 0.213518,0.22686 v 0.8941 c 0,0.1201 -0.09341,0.21352 -0.213518,0.21352 h -0.707276 c -0.08007,0.33362 -0.200173,0.64056 -0.373656,0.9208 l 0.507104,0.5071 c 0.08007,0.0801 0.08007,0.22686 0,0.30693 l -0.640552,0.62721 c -0.08007,0.0934 -0.226862,0.0934 -0.306932,0 l -0.493758,-0.49376 c -0.280243,0.17348 -0.587173,0.30693 -0.920795,0.387 v 0.70727 c 0,0.12011 -0.09341,0.22687 -0.213518,0.22687 H 14.75142 c -0.120105,0 -0.226862,-0.10676 -0.226862,-0.22687 v -0.70727 c -0.320276,-0.0667 -0.627208,-0.20017 -0.907449,-0.37366 l -0.507105,0.50711 c -0.09342,0.0934 -0.226861,0.0934 -0.306931,0 l -0.640553,-0.62721 c -0.08007,-0.0934 -0.08007,-0.22686 0,-0.30693 l 0.507104,-0.5071 c -0.173483,-0.28024 -0.306931,-0.58718 -0.386999,-0.90746 h -0.720623 c -0.120105,0 -0.213517,-0.10676 -0.213517,-0.22686 v -0.8941 c 0,-0.1201 0.09342,-0.21352 0.213517,-0.21352 h 0.707278 c 0.08007,-0.33362 0.200171,-0.64056 0.373655,-0.92079 l -0.507104,-0.50711 c -0.08007,-0.0801 -0.08007,-0.21352 0,-0.30693 l 0.640552,-0.6272 c 0.08007,-0.0934 0.226863,-0.0934 0.306931,0 l 0.507105,0.49375 c 0.266896,-0.17349 0.573828,-0.30694 0.907449,-0.38699 v -0.70728 c 0,-0.12011 0.09342,-0.21352 0.213517,-0.21352 h 0.894104 c 0.120105,0 0.226863,0.0934 0.226863,0.21352 z m -0.653897,1.65475 c 0.693932,0 1.254415,0.56049 1.254415,1.25442 0,0.68058 -0.560483,1.24107 -1.254415,1.24107 -0.693932,0 -1.254415,-0.56049 -1.254415,-1.24107 0,-0.69393 0.560483,-1.25442 1.254415,-1.25442 z"
       class="fil3"
       id="path8059" />
    <path
       style="clip-rule:evenodd;fill:#000000;fill-opacity:0.10196102;fill-rule:evenodd;stroke-width:0.01334484;image-rendering:optimizeQuality;shape-rendering:geometricPrecision;text-rendering:geometricPrecision"
       inkscape:connector-curvature="0"
       id="path8061"
       d="m 19.008425,121.83917 v 0.60052 c 0,0.12011 -0.09341,0.21352 -0.213516,0.21352 h -0.707278 c -0.04003,0.18682 -0.10676,0.3603 -0.173483,0.52044 0.01334,-0.34697 0.04003,-0.52044 0.173483,-1.12096 h 0.707278 c 0.120104,0 0.213516,-0.0934 0.213516,-0.21352 z m -0.934139,2.09514 0.146793,0.1468 c 0.08007,0.0801 0.08007,0.22685 0,0.30692 l -0.640551,0.62721 c -0.08007,0.0934 -0.226863,0.0934 -0.306932,0 l -0.493759,-0.49376 c -0.280242,0.17348 -0.587173,0.30693 -0.920795,0.387 v -0.60052 c 0.333622,-0.0801 0.640553,-0.21351 0.920795,-0.38699 l 0.493759,0.50709 c 0.08007,0.0801 0.226862,0.0801 0.306932,0 z m -2.215244,1.09428 v 0.58718 c 0,0.1201 -0.09341,0.22685 -0.213516,0.22685 H 14.75142 c -0.120105,0 -0.226862,-0.10676 -0.226862,-0.22685 v -0.58718 c 0.01334,0.1201 0.10676,0.21352 0.226862,0.21352 h 0.894106 c 0.120104,0 0.213516,-0.0934 0.213516,-0.21352 z m -1.334484,-0.12011 c -0.320276,-0.0667 -0.627208,-0.20017 -0.907449,-0.37366 l -0.507103,0.50711 c -0.09342,0.0934 -0.226863,0.0934 -0.306932,0 l -0.640553,-0.62721 c -0.08007,-0.0934 -0.08007,-0.22685 0,-0.30692 l 0.146794,-0.1468 0.493759,0.48041 c 0.08007,0.0934 0.213517,0.0934 0.306932,0 l 0.507103,-0.5071 c 0.280241,0.17349 0.587173,0.30693 0.907449,0.37365 z m -2.06845,-1.69479 c -0.06672,-0.17349 -0.13345,-0.34697 -0.173483,-0.52044 h -0.720622 c -0.120104,0 -0.213516,-0.10676 -0.213516,-0.22687 v -0.58718 c 0,0.12011 0.09341,0.21352 0.213516,0.21352 h 0.720622 c 0.133449,0.60053 0.146793,0.774 0.173483,1.12097 z m 2.722348,-2.45545 c 0.587173,0 1.080931,0.40035 1.21438,0.94748 0.02669,-0.0934 0.04003,0.0934 0.04003,-0.29359 0,-0.40034 -0.613862,-0.94748 -1.307794,-0.94748 -0.693931,0 -1.201036,0.54714 -1.201036,0.94748 0,0.387 0.01335,0.20017 0.04003,0.29359 0.13345,-0.54713 0.627208,-0.94748 1.214381,-0.94748 z"
       class="fil1" />
  </g>
</svg>
